<svg width="64" height="64" viewBox="0 0 64 64" fill="none" xmlns="http://www.w3.org/2000/svg">
  <rect width="64" height="64" rx="20" fill="url(#bg)" />
  <circle cx="51" cy="13" r="5" fill="#ABEFE7" />
  <circle cx="12" cy="51" r="4" fill="#FFB0CA" />
  <path d="M18 14C18 10.6863 20.6863 8 24 8H39.8L50 18.2V46C50 49.3137 47.3137 52 44 52H24C20.6863 52 18 49.3137 18 46V14Z" fill="white" fill-opacity="0.97" />
  <path d="M39 9V18C39 19.1046 39.8954 20 41 20H49" stroke="#A03964" stroke-width="4" stroke-linecap="round" stroke-linejoin="round" />
  <path d="M32.1 43.4C30.25 41.82 23.5 35.76 23.5 31.35C23.5 28.62 25.62 26.5 28.2 26.5C29.75 26.5 31.17 27.29 32 28.52C32.83 27.29 34.25 26.5 35.8 26.5C38.38 26.5 40.5 28.62 40.5 31.35C40.5 35.76 33.75 41.82 32.1 43.4Z" fill="#D6628D" />
  <path d="M25 18H31" stroke="#006879" stroke-width="4" stroke-linecap="round" />
  <path d="M25 23.5H34" stroke="#206963" stroke-width="4" stroke-linecap="round" />
  <defs>
    <linearGradient id="bg" x1="6" y1="5" x2="59" y2="61" gradientUnits="userSpaceOnUse">
      <stop stop-color="#FFD9E3" />
      <stop offset="0.48" stop-color="#FFB0CA" />
      <stop offset="1" stop-color="#AAEDFF" />
    </linearGradient>
  </defs>
</svg>
